<svg xmlns="http://www.w3.org/2000/svg" xmlns:xlink="http://www.w3.org/1999/xlink" width="500" zoomAndPan="magnify" viewBox="0 0 375 374.999991" height="500" preserveAspectRatio="xMidYMid meet" version="1.0"><defs><g/></defs><g fill="#ffa877" fill-opacity="1"><g transform="translate(-4.144832, 113.272526)"><g><path d="M 5.265625 0 L 5.265625 -1.34375 C 6.835938 -1.820312 7.914062 -2.851562 8.5 -4.4375 C 9.09375 -6.019531 9.390625 -8.90625 9.390625 -13.09375 L 9.390625 -59.09375 C 9.390625 -63.363281 9.09375 -66.269531 8.5 -67.8125 C 7.914062 -69.363281 6.835938 -70.378906 5.265625 -70.859375 L 5.265625 -72.203125 L 53.84375 -72.203125 L 54.765625 -61.375 L 53.640625 -61.0625 C 51.910156 -64.5 49.773438 -66.9375 47.234375 -68.375 C 44.691406 -69.820312 40.976562 -70.546875 36.09375 -70.546875 L 17.84375 -70.546875 L 17.84375 -40.328125 L 30.109375 -40.328125 C 34.035156 -40.328125 37.082031 -40.582031 39.25 -41.09375 C 41.414062 -41.613281 42.992188 -42.390625 43.984375 -43.421875 C 44.984375 -44.453125 45.691406 -45.722656 46.109375 -47.234375 L 47.34375 -47.234375 L 47.34375 -31.5625 L 46.109375 -31.5625 C 45.691406 -33.144531 44.984375 -34.453125 43.984375 -35.484375 C 42.992188 -36.515625 41.414062 -37.300781 39.25 -37.84375 C 37.082031 -38.394531 34.035156 -38.671875 30.109375 -38.671875 L 17.84375 -38.671875 L 17.84375 -13.09375 C 17.84375 -8.90625 18.132812 -6.019531 18.71875 -4.4375 C 19.300781 -2.851562 20.382812 -1.820312 21.96875 -1.34375 L 21.96875 0 Z M 5.265625 0 "/></g></g></g><g fill="#ffa877" fill-opacity="1"><g transform="translate(48.659353, 113.272526)"><g><path d="M 3.296875 0 L 3.296875 -1.34375 C 4.878906 -1.820312 5.960938 -2.851562 6.546875 -4.4375 C 7.128906 -6.019531 7.421875 -8.90625 7.421875 -13.09375 L 7.421875 -36.828125 C 7.421875 -39.234375 7.265625 -41.035156 6.953125 -42.234375 C 6.648438 -43.441406 6.207031 -44.316406 5.625 -44.859375 C 5.039062 -45.410156 4.265625 -45.894531 3.296875 -46.3125 L 3.296875 -47.4375 L 14.546875 -52.390625 L 15.46875 -51.671875 L 15.46875 -38.78125 C 16.289062 -40.769531 17.375 -42.625 18.71875 -44.34375 C 20.0625 -46.0625 21.488281 -47.472656 23 -48.578125 C 24.582031 -49.742188 26.316406 -50.65625 28.203125 -51.3125 C 30.097656 -51.96875 32.285156 -52.296875 34.765625 -52.296875 C 36.828125 -52.296875 38.457031 -52.050781 39.65625 -51.5625 C 40.863281 -51.082031 41.46875 -50.394531 41.46875 -49.5 C 41.46875 -48.40625 40.929688 -47.148438 39.859375 -45.734375 C 38.796875 -44.328125 37.335938 -43.625 35.484375 -43.625 C 34.109375 -43.625 32.367188 -43.878906 30.265625 -44.390625 C 28.171875 -44.910156 25.613281 -45.617188 22.59375 -46.515625 C 21.625 -45.828125 20.609375 -44.773438 19.546875 -43.359375 C 18.484375 -41.953125 17.585938 -40.390625 16.859375 -38.671875 C 16.140625 -36.953125 15.710938 -35.269531 15.578125 -33.625 L 15.46875 -33.625 L 15.46875 -13.09375 C 15.46875 -8.90625 15.757812 -6.019531 16.34375 -4.4375 C 16.925781 -2.851562 18.007812 -1.820312 19.59375 -1.34375 L 19.59375 0 Z M 3.296875 0 "/></g></g></g><g fill="#ffa877" fill-opacity="1"><g transform="translate(87.127949, 113.272526)"><g><path d="M 28.15625 1.03125 C 25.332031 1.03125 22.476562 0.515625 19.59375 -0.515625 C 16.707031 -1.546875 14.0625 -3.109375 11.65625 -5.203125 C 9.25 -7.304688 7.320312 -9.9375 5.875 -13.09375 C 4.4375 -16.257812 3.71875 -19.972656 3.71875 -24.234375 C 3.71875 -29.878906 4.972656 -34.796875 7.484375 -38.984375 C 9.992188 -43.179688 13.3125 -46.445312 17.4375 -48.78125 C 21.5625 -51.125 26.03125 -52.296875 30.84375 -52.296875 C 35.175781 -52.296875 38.867188 -51.453125 41.921875 -49.765625 C 44.984375 -48.078125 47.351562 -45.859375 49.03125 -43.109375 C 50.71875 -40.359375 51.597656 -37.332031 51.671875 -34.03125 L 11.34375 -34.03125 C 11.132812 -32.519531 11.03125 -30.941406 11.03125 -29.296875 C 11.03125 -24.617188 11.941406 -20.472656 13.765625 -16.859375 C 15.585938 -13.253906 18.164062 -10.453125 21.5 -8.453125 C 24.832031 -6.460938 28.738281 -5.46875 33.21875 -5.46875 C 37.195312 -5.46875 40.664062 -6.289062 43.625 -7.9375 C 46.582031 -9.59375 49.226562 -11.757812 51.5625 -14.4375 L 52.5 -13.515625 C 50.78125 -11.109375 48.71875 -8.785156 46.3125 -6.546875 C 43.90625 -4.316406 41.207031 -2.492188 38.21875 -1.078125 C 35.226562 0.328125 31.875 1.03125 28.15625 1.03125 Z M 11.65625 -35.375 L 43.421875 -35.375 C 43.078125 -37.71875 42.234375 -40.039062 40.890625 -42.34375 C 39.554688 -44.644531 37.769531 -46.566406 35.53125 -48.109375 C 33.300781 -49.660156 30.601562 -50.4375 27.4375 -50.4375 C 23.03125 -50.5 19.503906 -49.085938 16.859375 -46.203125 C 14.210938 -43.316406 12.476562 -39.707031 11.65625 -35.375 Z M 11.65625 -35.375 "/></g></g></g><g fill="#ffa877" fill-opacity="1"><g transform="translate(137.663195, 113.272526)"><g><path d="M 23.3125 0.921875 C 19.1875 0.921875 15.453125 0.40625 12.109375 -0.625 C 8.773438 -1.65625 6.25 -2.71875 4.53125 -3.8125 L 3.609375 -16.296875 L 4.53125 -16.5 C 6.738281 -11.613281 9.628906 -7.78125 13.203125 -5 C 16.773438 -2.21875 20.898438 -0.789062 25.578125 -0.71875 C 28.804688 -0.71875 31.46875 -1.59375 33.5625 -3.34375 C 35.664062 -5.101562 36.71875 -7.425781 36.71875 -10.3125 C 36.71875 -12.789062 36.007812 -14.785156 34.59375 -16.296875 C 33.1875 -17.804688 31.332031 -19.039062 29.03125 -20 C 26.726562 -20.96875 24.238281 -21.863281 21.5625 -22.6875 C 18.320312 -23.71875 15.429688 -24.800781 12.890625 -25.9375 C 10.347656 -27.070312 8.351562 -28.566406 6.90625 -30.421875 C 5.46875 -32.285156 4.75 -34.765625 4.75 -37.859375 C 4.75 -41.910156 6.378906 -45.328125 9.640625 -48.109375 C 12.910156 -50.898438 17.535156 -52.296875 23.515625 -52.296875 C 26.878906 -52.296875 29.988281 -52 32.84375 -51.40625 C 35.695312 -50.820312 37.914062 -50.1875 39.5 -49.5 L 39.921875 -38.984375 L 38.890625 -38.78125 C 37.234375 -42.488281 34.859375 -45.441406 31.765625 -47.640625 C 28.671875 -49.847656 25.300781 -50.953125 21.65625 -50.953125 C 18.15625 -50.953125 15.351562 -50.160156 13.25 -48.578125 C 11.15625 -46.992188 10.109375 -44.894531 10.109375 -42.28125 C 10.109375 -40.15625 10.773438 -38.367188 12.109375 -36.921875 C 13.453125 -35.484375 15.238281 -34.265625 17.46875 -33.265625 C 19.707031 -32.265625 22.171875 -31.316406 24.859375 -30.421875 C 26.847656 -29.804688 28.859375 -29.132812 30.890625 -28.40625 C 32.921875 -27.6875 34.773438 -26.796875 36.453125 -25.734375 C 38.140625 -24.671875 39.515625 -23.296875 40.578125 -21.609375 C 41.648438 -19.921875 42.1875 -17.769531 42.1875 -15.15625 C 42.1875 -12.269531 41.476562 -9.601562 40.0625 -7.15625 C 38.65625 -4.71875 36.539062 -2.773438 33.71875 -1.328125 C 30.90625 0.109375 27.4375 0.859375 23.3125 0.921875 Z M 23.3125 0.921875 "/></g></g></g><g fill="#ffa877" fill-opacity="1"><g transform="translate(178.710141, 113.272526)"><g><path d="M 2.78125 0 L 2.78125 -1.34375 C 4.363281 -1.820312 5.445312 -2.851562 6.03125 -4.4375 C 6.613281 -6.019531 6.90625 -8.90625 6.90625 -13.09375 L 6.90625 -67.765625 C 6.90625 -70.171875 6.75 -71.972656 6.4375 -73.171875 C 6.132812 -74.378906 5.691406 -75.257812 5.109375 -75.8125 C 4.523438 -76.363281 3.75 -76.84375 2.78125 -77.25 L 2.78125 -78.390625 L 14.03125 -83.34375 L 14.953125 -82.609375 L 14.953125 -42.796875 C 17.984375 -45.203125 21.390625 -47.382812 25.171875 -49.34375 C 28.953125 -51.3125 32.835938 -52.296875 36.828125 -52.296875 C 41.910156 -52.296875 45.894531 -50.816406 48.78125 -47.859375 C 51.675781 -44.898438 53.125 -40.394531 53.125 -34.34375 L 53.125 -13.09375 C 53.125 -8.90625 53.414062 -6.019531 54 -4.4375 C 54.582031 -2.851562 55.664062 -1.820312 57.25 -1.34375 L 57.25 0 L 40.953125 0 L 40.953125 -1.34375 C 42.523438 -1.820312 43.601562 -2.851562 44.1875 -4.4375 C 44.78125 -6.019531 45.078125 -8.90625 45.078125 -13.09375 L 45.078125 -32.28125 C 45.078125 -37.644531 43.941406 -41.753906 41.671875 -44.609375 C 39.398438 -47.460938 35.992188 -48.890625 31.453125 -48.890625 C 28.640625 -48.890625 25.835938 -48.148438 23.046875 -46.671875 C 20.265625 -45.191406 17.566406 -43.351562 14.953125 -41.15625 L 14.953125 -13.09375 C 14.953125 -8.90625 15.242188 -6.019531 15.828125 -4.4375 C 16.410156 -2.851562 17.492188 -1.820312 19.078125 -1.34375 L 19.078125 0 Z M 2.78125 0 "/></g></g></g><g fill="#ffa877" fill-opacity="1"><g transform="translate(233.576989, 113.272526)"><g><path d="M 3.921875 0 L 3.921875 -1.34375 C 5.503906 -1.820312 6.585938 -2.851562 7.171875 -4.4375 C 7.753906 -6.019531 8.046875 -8.90625 8.046875 -13.09375 L 8.046875 -67.765625 C 8.046875 -70.171875 7.890625 -71.972656 7.578125 -73.171875 C 7.265625 -74.378906 6.816406 -75.257812 6.234375 -75.8125 C 5.648438 -76.363281 4.878906 -76.84375 3.921875 -77.25 L 3.921875 -78.390625 L 15.15625 -83.34375 L 16.09375 -82.609375 L 16.09375 -13.09375 C 16.09375 -8.90625 16.382812 -6.019531 16.96875 -4.4375 C 17.550781 -2.851562 18.632812 -1.820312 20.21875 -1.34375 L 20.21875 0 Z M 3.921875 0 "/></g></g></g><g fill="#ffa877" fill-opacity="1"><g transform="translate(253.172119, 113.272526)"><g><path d="M 3.09375 19.90625 C 1.101562 19.976562 -0.5625 19.71875 -1.90625 19.125 C -3.25 18.539062 -3.921875 17.835938 -3.921875 17.015625 C -3.921875 16.328125 -3.644531 15.550781 -3.09375 14.6875 C -2.539062 13.832031 -1.78125 13.0625 -0.8125 12.375 C 0.144531 11.6875 1.238281 11.34375 2.46875 11.34375 C 3.84375 11.34375 5.769531 11.632812 8.25 12.21875 C 10.726562 12.800781 13.132812 13.300781 15.46875 13.71875 C 17.257812 12.132812 18.941406 10.15625 20.515625 7.78125 C 22.097656 5.414062 23.546875 2.890625 24.859375 0.203125 L 7.9375 -39.5 C 6.351562 -43.351562 4.910156 -45.984375 3.609375 -47.390625 C 2.304688 -48.796875 1.101562 -49.742188 0 -50.234375 L 0 -51.5625 L 15.578125 -51.5625 L 15.578125 -50.234375 C 14.066406 -49.742188 13.445312 -48.796875 13.71875 -47.390625 C 13.988281 -45.984375 14.953125 -43.351562 16.609375 -39.5 L 29.296875 -10 L 41.984375 -39.5 C 43.421875 -42.875 44.070312 -45.421875 43.9375 -47.140625 C 43.800781 -48.859375 42.835938 -49.890625 41.046875 -50.234375 L 41.046875 -51.5625 L 52.5 -51.5625 L 52.5 -50.234375 C 51.050781 -49.742188 49.625 -48.796875 48.21875 -47.390625 C 46.8125 -45.984375 45.25 -43.351562 43.53125 -39.5 L 27.53125 -2.578125 C 25.332031 2.441406 23.132812 6.460938 20.9375 9.484375 C 18.738281 12.515625 16.585938 14.769531 14.484375 16.25 C 12.390625 17.726562 10.378906 18.707031 8.453125 19.1875 C 6.523438 19.664062 4.738281 19.90625 3.09375 19.90625 Z M 3.09375 19.90625 "/></g></g></g><g fill="#ffa877" fill-opacity="1"><g transform="translate(95.871181, 212.44352)"><g><path d="M 5.453125 0 L 5.453125 -1.390625 C 7.097656 -1.890625 8.222656 -2.957031 8.828125 -4.59375 C 9.429688 -6.238281 9.734375 -9.238281 9.734375 -13.59375 L 9.734375 -61.296875 C 9.734375 -65.722656 9.429688 -68.738281 8.828125 -70.34375 C 8.222656 -71.945312 7.097656 -73 5.453125 -73.5 L 5.453125 -74.890625 L 30.484375 -74.890625 C 38.765625 -74.890625 44.703125 -73.625 48.296875 -71.09375 C 51.898438 -68.5625 53.703125 -65.117188 53.703125 -60.765625 C 53.703125 -57.128906 52.414062 -53.8125 49.84375 -50.8125 C 47.28125 -47.820312 42.929688 -45.753906 36.796875 -44.609375 C 42.648438 -44.328125 47.429688 -43.257812 51.140625 -41.40625 C 54.847656 -39.550781 57.59375 -37.160156 59.375 -34.234375 C 61.15625 -31.304688 62.046875 -28.097656 62.046875 -24.609375 C 62.117188 -21.609375 61.546875 -18.644531 60.328125 -15.71875 C 59.117188 -12.800781 57.160156 -10.164062 54.453125 -7.8125 C 51.742188 -5.457031 48.160156 -3.566406 43.703125 -2.140625 C 39.242188 -0.710938 33.769531 0 27.28125 0 Z M 18.515625 -10.90625 C 18.515625 -7.0625 18.867188 -4.550781 19.578125 -3.375 C 20.285156 -2.195312 21.785156 -1.609375 24.078125 -1.609375 L 28.25 -1.609375 C 34.09375 -1.609375 38.757812 -2.476562 42.25 -4.21875 C 45.75 -5.96875 48.300781 -8.375 49.90625 -11.4375 C 51.507812 -14.507812 52.3125 -18.007812 52.3125 -21.9375 C 52.3125 -26.070312 51.523438 -29.722656 49.953125 -32.890625 C 48.390625 -36.066406 45.910156 -38.582031 42.515625 -40.4375 C 39.128906 -42.289062 34.765625 -43.21875 29.421875 -43.21875 L 18.515625 -43.21875 Z M 18.515625 -44.828125 L 28.453125 -44.828125 C 33.734375 -44.828125 37.640625 -46.179688 40.171875 -48.890625 C 42.703125 -51.597656 43.96875 -54.914062 43.96875 -58.84375 C 43.96875 -63.257812 42.453125 -66.769531 39.421875 -69.375 C 36.390625 -71.976562 32.128906 -73.28125 26.640625 -73.28125 L 18.515625 -73.28125 Z M 18.515625 -44.828125 "/></g></g></g><g fill="#ffa877" fill-opacity="1"><g transform="translate(156.318689, 212.44352)"><g><path d="M 44.828125 0 C 42.679688 0 41.609375 -1.066406 41.609375 -3.203125 L 41.609375 -22.46875 C 40.546875 -18.113281 38.875 -14.15625 36.59375 -10.59375 C 34.3125 -7.03125 31.65625 -4.195312 28.625 -2.09375 C 25.59375 0.0078125 22.289062 1.0625 18.71875 1.0625 C 16.082031 1.0625 13.625 0.53125 11.34375 -0.53125 C 9.0625 -1.601562 7.222656 -3.171875 5.828125 -5.234375 C 4.441406 -7.304688 3.75 -9.875 3.75 -12.9375 C 3.75 -16.65625 4.851562 -19.6875 7.0625 -22.03125 C 9.269531 -24.382812 12.207031 -26.3125 15.875 -27.8125 C 19.550781 -29.3125 23.492188 -30.632812 27.703125 -31.78125 L 41.609375 -35.515625 C 41.328125 -40.722656 39.898438 -44.554688 37.328125 -47.015625 C 34.765625 -49.472656 31.203125 -50.703125 26.640625 -50.703125 C 23.429688 -50.703125 20.3125 -49.9375 17.28125 -48.40625 C 14.25 -46.875 11.378906 -44.46875 8.671875 -41.1875 L 7.703125 -42.046875 C 10.765625 -45.828125 14.238281 -48.800781 18.125 -50.96875 C 22.019531 -53.144531 26.285156 -54.234375 30.921875 -54.234375 C 37.410156 -54.234375 42.1875 -52.539062 45.25 -49.15625 C 48.320312 -45.769531 49.859375 -41.046875 49.859375 -34.984375 L 49.859375 -13.59375 C 49.859375 -9.238281 50.160156 -6.238281 50.765625 -4.59375 C 51.367188 -2.957031 52.492188 -1.890625 54.140625 -1.390625 L 54.140625 0 Z M 11.765625 -15.9375 C 11.765625 -12.445312 12.816406 -9.789062 14.921875 -7.96875 C 17.023438 -6.15625 19.613281 -5.25 22.6875 -5.25 C 25.53125 -5.25 28.109375 -6.050781 30.421875 -7.65625 C 32.742188 -9.257812 34.722656 -11.34375 36.359375 -13.90625 C 38.003906 -16.476562 39.289062 -19.257812 40.21875 -22.25 C 41.144531 -25.25 41.609375 -28.140625 41.609375 -30.921875 L 41.609375 -34.125 L 28.140625 -30.484375 C 25.492188 -29.773438 22.90625 -28.832031 20.375 -27.65625 C 17.84375 -26.476562 15.773438 -24.960938 14.171875 -23.109375 C 12.566406 -21.253906 11.765625 -18.863281 11.765625 -15.9375 Z M 11.765625 -15.9375 "/></g></g></g><g fill="#ffa877" fill-opacity="1"><g transform="translate(207.993242, 212.44352)"><g><path d="M 3.953125 0 L 3.953125 -1.390625 C 5.597656 -1.890625 6.722656 -2.957031 7.328125 -4.59375 C 7.929688 -6.238281 8.234375 -9.238281 8.234375 -13.59375 L 8.234375 -70.28125 C 8.234375 -72.78125 8.070312 -74.65625 7.75 -75.90625 C 7.4375 -77.15625 6.972656 -78.0625 6.359375 -78.625 C 5.753906 -79.195312 4.953125 -79.695312 3.953125 -80.125 L 3.953125 -81.3125 L 15.625 -86.4375 L 16.578125 -85.6875 L 16.578125 -23.21875 L 35.203125 -41.078125 C 38.691406 -44.503906 40.753906 -47.179688 41.390625 -49.109375 C 42.035156 -51.035156 41.753906 -52.25 40.546875 -52.75 L 40.546875 -53.5 L 53.171875 -53.5 L 53.171875 -52.09375 C 51.597656 -51.601562 49.8125 -50.894531 47.8125 -49.96875 C 45.820312 -49.039062 43.257812 -47.078125 40.125 -44.078125 L 32.421875 -36.59375 L 44.9375 -14.015625 C 47 -10.304688 48.957031 -7.289062 50.8125 -4.96875 C 52.664062 -2.65625 54.804688 -1.425781 57.234375 -1.28125 L 57.234375 0 L 50.28125 0 C 47.644531 0 45.304688 -0.941406 43.265625 -2.828125 C 41.234375 -4.722656 38.898438 -8.0625 36.265625 -12.84375 L 26.53125 -30.921875 L 16.578125 -21.296875 L 16.578125 -13.59375 C 16.578125 -9.238281 16.878906 -6.238281 17.484375 -4.59375 C 18.097656 -2.957031 19.222656 -1.890625 20.859375 -1.390625 L 20.859375 0 Z M 3.953125 0 "/></g></g></g><g fill="#ffa877" fill-opacity="1"><g transform="translate(259.667796, 212.44352)"><g><path d="M 29.203125 1.0625 C 26.285156 1.0625 23.328125 0.53125 20.328125 -0.53125 C 17.328125 -1.601562 14.578125 -3.226562 12.078125 -5.40625 C 9.585938 -7.582031 7.59375 -10.3125 6.09375 -13.59375 C 4.59375 -16.875 3.84375 -20.722656 3.84375 -25.140625 C 3.84375 -30.984375 5.144531 -36.082031 7.75 -40.4375 C 10.351562 -44.789062 13.796875 -48.175781 18.078125 -50.59375 C 22.359375 -53.019531 26.992188 -54.234375 31.984375 -54.234375 C 36.484375 -54.234375 40.316406 -53.359375 43.484375 -51.609375 C 46.660156 -49.867188 49.125 -47.570312 50.875 -44.71875 C 52.625 -41.863281 53.53125 -38.726562 53.59375 -35.3125 L 11.765625 -35.3125 C 11.554688 -33.738281 11.453125 -32.097656 11.453125 -30.390625 C 11.453125 -25.535156 12.394531 -21.234375 14.28125 -17.484375 C 16.175781 -13.742188 18.851562 -10.835938 22.3125 -8.765625 C 25.769531 -6.703125 29.816406 -5.671875 34.453125 -5.671875 C 38.585938 -5.671875 42.1875 -6.523438 45.25 -8.234375 C 48.320312 -9.953125 51.070312 -12.203125 53.5 -14.984375 L 54.453125 -14.015625 C 52.671875 -11.515625 50.53125 -9.101562 48.03125 -6.78125 C 45.539062 -4.46875 42.742188 -2.582031 39.640625 -1.125 C 36.535156 0.332031 33.054688 1.0625 29.203125 1.0625 Z M 12.09375 -36.703125 L 45.046875 -36.703125 C 44.679688 -39.117188 43.800781 -41.519531 42.40625 -43.90625 C 41.019531 -46.300781 39.164062 -48.300781 36.84375 -49.90625 C 34.53125 -51.507812 31.734375 -52.3125 28.453125 -52.3125 C 23.890625 -52.382812 20.234375 -50.921875 17.484375 -47.921875 C 14.742188 -44.929688 12.945312 -41.191406 12.09375 -36.703125 Z M 12.09375 -36.703125 "/></g></g></g><g fill="#ffa877" fill-opacity="1"><g transform="translate(312.091274, 212.44352)"><g><path d="M 27.5 1.171875 C 23.070312 1.097656 19.070312 -0.09375 15.5 -2.40625 C 11.9375 -4.726562 9.101562 -7.898438 7 -11.921875 C 4.894531 -15.953125 3.84375 -20.46875 3.84375 -25.46875 C 3.84375 -30.457031 4.945312 -35.125 7.15625 -39.46875 C 9.375 -43.820312 12.601562 -47.351562 16.84375 -50.0625 C 21.09375 -52.78125 26.285156 -54.140625 32.421875 -54.140625 C 35.335938 -54.140625 38.023438 -53.742188 40.484375 -52.953125 C 42.953125 -52.171875 45.113281 -51.175781 46.96875 -49.96875 L 46.96875 -70.28125 C 46.96875 -72.78125 46.804688 -74.65625 46.484375 -75.90625 C 46.160156 -77.15625 45.695312 -78.0625 45.09375 -78.625 C 44.488281 -79.195312 43.6875 -79.695312 42.6875 -80.125 L 42.6875 -81.3125 L 54.453125 -86.4375 L 55.3125 -85.6875 L 55.3125 -13.59375 C 55.3125 -9.238281 55.613281 -6.238281 56.21875 -4.59375 C 56.820312 -2.957031 57.945312 -1.890625 59.59375 -1.390625 L 59.59375 0 L 50.171875 0 C 48.035156 0 46.96875 -1.066406 46.96875 -3.203125 L 46.96875 -9.3125 C 44.320312 -6.601562 41.359375 -4.160156 38.078125 -1.984375 C 34.804688 0.191406 31.28125 1.242188 27.5 1.171875 Z M 11.875 -31.875 C 11.875 -28.738281 12.265625 -25.546875 13.046875 -22.296875 C 13.835938 -19.054688 15.035156 -16.046875 16.640625 -13.265625 C 18.242188 -10.484375 20.347656 -8.253906 22.953125 -6.578125 C 25.554688 -4.898438 28.675781 -4.0625 32.3125 -4.0625 C 35.09375 -4.0625 37.710938 -4.722656 40.171875 -6.046875 C 42.628906 -7.367188 44.894531 -9.097656 46.96875 -11.234375 L 46.96875 -37.4375 C 46.675781 -39.789062 45.675781 -42.09375 43.96875 -44.34375 C 42.257812 -46.59375 40.101562 -48.445312 37.5 -49.90625 C 34.894531 -51.363281 32.09375 -52.09375 29.09375 -52.09375 C 25.3125 -52.09375 22.140625 -51.203125 19.578125 -49.421875 C 17.015625 -47.640625 15.085938 -45.210938 13.796875 -42.140625 C 12.515625 -39.078125 11.875 -35.65625 11.875 -31.875 Z M 11.875 -31.875 "/></g></g></g></svg>