<svg xmlns="http://www.w3.org/2000/svg" xmlns:xlink="http://www.w3.org/1999/xlink" width="500" zoomAndPan="magnify" viewBox="0 0 375 374.999991" height="500" preserveAspectRatio="xMidYMid meet" version="1.0"><defs><g/></defs><g fill="#ff914d" fill-opacity="1"><g transform="translate(0.200604, 96.486094)"><g><path d="M 4.28125 0 L 4.28125 -1.09375 C 5.570312 -1.488281 6.457031 -2.328125 6.9375 -3.609375 C 7.414062 -4.898438 7.65625 -7.257812 7.65625 -10.6875 L 7.65625 -48.1875 C 7.65625 -51.664062 7.414062 -54.035156 6.9375 -55.296875 C 6.457031 -56.554688 5.570312 -57.378906 4.28125 -57.765625 L 4.28125 -58.859375 L 43.890625 -58.859375 L 44.65625 -50.03125 L 43.734375 -49.78125 C 42.328125 -52.582031 40.585938 -54.570312 38.515625 -55.75 C 36.441406 -56.925781 33.414062 -57.515625 29.4375 -57.515625 L 14.546875 -57.515625 L 14.546875 -32.875 L 24.5625 -32.875 C 27.75 -32.875 30.222656 -33.082031 31.984375 -33.5 C 33.753906 -33.925781 35.046875 -34.5625 35.859375 -35.40625 C 36.671875 -36.25 37.25 -37.285156 37.59375 -38.515625 L 38.59375 -38.515625 L 38.59375 -25.734375 L 37.59375 -25.734375 C 37.25 -27.023438 36.671875 -28.085938 35.859375 -28.921875 C 35.046875 -29.765625 33.753906 -30.410156 31.984375 -30.859375 C 30.222656 -31.304688 27.75 -31.53125 24.5625 -31.53125 L 14.546875 -31.53125 L 14.546875 -10.6875 C 14.546875 -7.257812 14.785156 -4.898438 15.265625 -3.609375 C 15.742188 -2.328125 16.625 -1.488281 17.90625 -1.09375 L 17.90625 0 Z M 4.28125 0 "/></g></g></g><g fill="#ff914d" fill-opacity="1"><g transform="translate(43.254884, 96.486094)"><g><path d="M 2.6875 0 L 2.6875 -1.09375 C 3.976562 -1.488281 4.863281 -2.328125 5.34375 -3.609375 C 5.820312 -4.898438 6.0625 -7.257812 6.0625 -10.6875 L 6.0625 -30.015625 C 6.0625 -31.984375 5.929688 -33.457031 5.671875 -34.4375 C 5.421875 -35.414062 5.054688 -36.128906 4.578125 -36.578125 C 4.109375 -37.023438 3.476562 -37.421875 2.6875 -37.765625 L 2.6875 -38.6875 L 11.859375 -42.71875 L 12.609375 -42.125 L 12.609375 -31.625 C 13.285156 -33.25 14.171875 -34.757812 15.265625 -36.15625 C 16.359375 -37.5625 17.519531 -38.710938 18.75 -39.609375 C 20.039062 -40.554688 21.457031 -41.296875 23 -41.828125 C 24.539062 -42.367188 26.320312 -42.640625 28.34375 -42.640625 C 30.019531 -42.640625 31.347656 -42.441406 32.328125 -42.046875 C 33.316406 -41.648438 33.8125 -41.085938 33.8125 -40.359375 C 33.8125 -39.460938 33.375 -38.441406 32.5 -37.296875 C 31.632812 -36.148438 30.441406 -35.578125 28.921875 -35.578125 C 27.804688 -35.578125 26.390625 -35.785156 24.671875 -36.203125 C 22.960938 -36.617188 20.878906 -37.191406 18.421875 -37.921875 C 17.628906 -37.359375 16.796875 -36.503906 15.921875 -35.359375 C 15.054688 -34.210938 14.328125 -32.9375 13.734375 -31.53125 C 13.148438 -30.132812 12.804688 -28.765625 12.703125 -27.421875 L 12.609375 -27.421875 L 12.609375 -10.6875 C 12.609375 -7.257812 12.847656 -4.898438 13.328125 -3.609375 C 13.804688 -2.328125 14.691406 -1.488281 15.984375 -1.09375 L 15.984375 0 Z M 2.6875 0 "/></g></g></g><g fill="#ff914d" fill-opacity="1"><g transform="translate(74.620537, 96.486094)"><g><path d="M 22.953125 0.84375 C 20.660156 0.84375 18.335938 0.421875 15.984375 -0.421875 C 13.628906 -1.265625 11.46875 -2.539062 9.5 -4.25 C 7.539062 -5.957031 5.972656 -8.097656 4.796875 -10.671875 C 3.617188 -13.253906 3.03125 -16.285156 3.03125 -19.765625 C 3.03125 -24.359375 4.050781 -28.363281 6.09375 -31.78125 C 8.144531 -35.207031 10.847656 -37.875 14.203125 -39.78125 C 17.566406 -41.6875 21.210938 -42.640625 25.140625 -42.640625 C 28.671875 -42.640625 31.679688 -41.953125 34.171875 -40.578125 C 36.671875 -39.203125 38.609375 -37.390625 39.984375 -35.140625 C 41.359375 -32.898438 42.070312 -30.4375 42.125 -27.75 L 9.25 -27.75 C 9.082031 -26.519531 9 -25.226562 9 -23.875 C 9 -20.070312 9.738281 -16.695312 11.21875 -13.75 C 12.707031 -10.800781 14.8125 -8.515625 17.53125 -6.890625 C 20.25 -5.265625 23.429688 -4.453125 27.078125 -4.453125 C 30.328125 -4.453125 33.15625 -5.125 35.5625 -6.46875 C 37.976562 -7.820312 40.140625 -9.585938 42.046875 -11.765625 L 42.796875 -11.015625 C 41.398438 -9.054688 39.71875 -7.164062 37.75 -5.34375 C 35.789062 -3.519531 33.59375 -2.03125 31.15625 -0.875 C 28.71875 0.269531 25.984375 0.84375 22.953125 0.84375 Z M 9.5 -28.84375 L 35.40625 -28.84375 C 35.125 -30.75 34.4375 -32.640625 33.34375 -34.515625 C 32.25 -36.398438 30.789062 -37.972656 28.96875 -39.234375 C 27.144531 -40.492188 24.945312 -41.125 22.375 -41.125 C 18.78125 -41.175781 15.90625 -40.023438 13.75 -37.671875 C 11.59375 -35.316406 10.175781 -32.375 9.5 -28.84375 Z M 9.5 -28.84375 "/></g></g></g><g fill="#ff914d" fill-opacity="1"><g transform="translate(115.824821, 96.486094)"><g><path d="M 19 0.75 C 15.632812 0.75 12.59375 0.332031 9.875 -0.5 C 7.15625 -1.34375 5.097656 -2.210938 3.703125 -3.109375 L 2.9375 -13.28125 L 3.703125 -13.453125 C 5.492188 -9.472656 7.847656 -6.347656 10.765625 -4.078125 C 13.679688 -1.804688 17.046875 -0.644531 20.859375 -0.59375 C 23.492188 -0.59375 25.664062 -1.304688 27.375 -2.734375 C 29.082031 -4.160156 29.9375 -6.050781 29.9375 -8.40625 C 29.9375 -10.425781 29.359375 -12.050781 28.203125 -13.28125 C 27.054688 -14.519531 25.546875 -15.53125 23.671875 -16.3125 C 21.796875 -17.09375 19.765625 -17.820312 17.578125 -18.5 C 14.941406 -19.34375 12.585938 -20.222656 10.515625 -21.140625 C 8.441406 -22.066406 6.816406 -23.285156 5.640625 -24.796875 C 4.460938 -26.316406 3.875 -28.335938 3.875 -30.859375 C 3.875 -34.171875 5.203125 -36.960938 7.859375 -39.234375 C 10.523438 -41.503906 14.296875 -42.640625 19.171875 -42.640625 C 21.921875 -42.640625 24.457031 -42.398438 26.78125 -41.921875 C 29.113281 -41.441406 30.921875 -40.921875 32.203125 -40.359375 L 32.546875 -31.78125 L 31.703125 -31.625 C 30.359375 -34.644531 28.421875 -37.050781 25.890625 -38.84375 C 23.367188 -40.644531 20.625 -41.546875 17.65625 -41.546875 C 14.800781 -41.546875 12.515625 -40.898438 10.796875 -39.609375 C 9.085938 -38.316406 8.234375 -36.609375 8.234375 -34.484375 C 8.234375 -32.742188 8.78125 -31.285156 9.875 -30.109375 C 10.96875 -28.929688 12.425781 -27.9375 14.25 -27.125 C 16.070312 -26.3125 18.078125 -25.539062 20.265625 -24.8125 C 21.890625 -24.300781 23.53125 -23.75 25.1875 -23.15625 C 26.84375 -22.570312 28.351562 -21.84375 29.71875 -20.96875 C 31.09375 -20.101562 32.210938 -18.984375 33.078125 -17.609375 C 33.953125 -16.242188 34.390625 -14.492188 34.390625 -12.359375 C 34.390625 -10.003906 33.816406 -7.832031 32.671875 -5.84375 C 31.523438 -3.851562 29.800781 -2.269531 27.5 -1.09375 C 25.195312 0.0820312 22.363281 0.695312 19 0.75 Z M 19 0.75 "/></g></g></g><g fill="#ff914d" fill-opacity="1"><g transform="translate(149.292749, 96.486094)"><g><path d="M 2.265625 0 L 2.265625 -1.09375 C 3.554688 -1.488281 4.441406 -2.328125 4.921875 -3.609375 C 5.398438 -4.898438 5.640625 -7.257812 5.640625 -10.6875 L 5.640625 -55.25 C 5.640625 -57.207031 5.507812 -58.675781 5.25 -59.65625 C 5 -60.644531 4.632812 -61.363281 4.15625 -61.8125 C 3.6875 -62.257812 3.054688 -62.648438 2.265625 -62.984375 L 2.265625 -63.90625 L 11.4375 -67.953125 L 12.1875 -67.359375 L 12.1875 -34.90625 C 14.65625 -36.863281 17.429688 -38.640625 20.515625 -40.234375 C 23.597656 -41.835938 26.765625 -42.640625 30.015625 -42.640625 C 34.171875 -42.640625 37.425781 -41.429688 39.78125 -39.015625 C 42.132812 -36.609375 43.3125 -32.9375 43.3125 -28 L 43.3125 -10.6875 C 43.3125 -7.257812 43.546875 -4.898438 44.015625 -3.609375 C 44.492188 -2.328125 45.378906 -1.488281 46.671875 -1.09375 L 46.671875 0 L 33.390625 0 L 33.390625 -1.09375 C 34.671875 -1.488281 35.550781 -2.328125 36.03125 -3.609375 C 36.507812 -4.898438 36.75 -7.257812 36.75 -10.6875 L 36.75 -26.328125 C 36.75 -30.691406 35.820312 -34.035156 33.96875 -36.359375 C 32.125 -38.691406 29.351562 -39.859375 25.65625 -39.859375 C 23.351562 -39.859375 21.066406 -39.253906 18.796875 -38.046875 C 16.523438 -36.847656 14.320312 -35.347656 12.1875 -33.546875 L 12.1875 -10.6875 C 12.1875 -7.257812 12.425781 -4.898438 12.90625 -3.609375 C 13.382812 -2.328125 14.269531 -1.488281 15.5625 -1.09375 L 15.5625 0 Z M 2.265625 0 "/></g></g></g><g fill="#ff914d" fill-opacity="1"><g transform="translate(194.028837, 96.486094)"><g><path d="M 3.203125 0 L 3.203125 -1.09375 C 4.484375 -1.488281 5.363281 -2.328125 5.84375 -3.609375 C 6.320312 -4.898438 6.5625 -7.257812 6.5625 -10.6875 L 6.5625 -55.25 C 6.5625 -57.207031 6.429688 -58.675781 6.171875 -59.65625 C 5.921875 -60.644531 5.554688 -61.363281 5.078125 -61.8125 C 4.609375 -62.257812 3.984375 -62.648438 3.203125 -62.984375 L 3.203125 -63.90625 L 12.359375 -67.953125 L 13.125 -67.359375 L 13.125 -10.6875 C 13.125 -7.257812 13.359375 -4.898438 13.828125 -3.609375 C 14.304688 -2.328125 15.191406 -1.488281 16.484375 -1.09375 L 16.484375 0 Z M 3.203125 0 "/></g></g></g><g fill="#ff914d" fill-opacity="1"><g transform="translate(210.00587, 96.486094)"><g><path d="M 2.515625 16.234375 C 0.890625 16.285156 -0.46875 16.070312 -1.5625 15.59375 C -2.65625 15.125 -3.203125 14.550781 -3.203125 13.875 C -3.203125 13.3125 -2.972656 12.679688 -2.515625 11.984375 C -2.066406 11.285156 -1.453125 10.65625 -0.671875 10.09375 C 0.109375 9.53125 1.003906 9.25 2.015625 9.25 C 3.140625 9.25 4.707031 9.488281 6.71875 9.96875 C 8.738281 10.445312 10.703125 10.851562 12.609375 11.1875 C 14.066406 9.894531 15.441406 8.28125 16.734375 6.34375 C 18.023438 4.414062 19.203125 2.359375 20.265625 0.171875 L 6.46875 -32.203125 C 5.1875 -35.347656 4.007812 -37.492188 2.9375 -38.640625 C 1.875 -39.785156 0.894531 -40.554688 0 -40.953125 L 0 -42.046875 L 12.703125 -42.046875 L 12.703125 -40.953125 C 11.460938 -40.554688 10.953125 -39.785156 11.171875 -38.640625 C 11.398438 -37.492188 12.191406 -35.347656 13.546875 -32.203125 L 23.875 -8.15625 L 34.21875 -32.203125 C 35.394531 -34.953125 35.925781 -37.023438 35.8125 -38.421875 C 35.707031 -39.828125 34.925781 -40.671875 33.46875 -40.953125 L 33.46875 -42.046875 L 42.796875 -42.046875 L 42.796875 -40.953125 C 41.617188 -40.554688 40.457031 -39.785156 39.3125 -38.640625 C 38.164062 -37.492188 36.890625 -35.347656 35.484375 -32.203125 L 22.453125 -2.109375 C 20.660156 1.984375 18.863281 5.265625 17.0625 7.734375 C 15.269531 10.203125 13.519531 12.035156 11.8125 13.234375 C 10.101562 14.441406 8.460938 15.242188 6.890625 15.640625 C 5.328125 16.035156 3.867188 16.234375 2.515625 16.234375 Z M 2.515625 16.234375 "/></g></g></g><g fill="#ff914d" fill-opacity="1"><g transform="translate(27.540799, 177.345889)"><g><path d="M 24.859375 0.875 C 20.265625 0.875 16.132812 0.207031 12.46875 -1.125 C 8.8125 -2.46875 5.960938 -3.867188 3.921875 -5.328125 L 3.484375 -17.453125 L 4.453125 -17.625 C 5.609375 -14.59375 7.128906 -11.785156 9.015625 -9.203125 C 10.910156 -6.617188 13.3125 -4.554688 16.21875 -3.015625 C 19.132812 -1.472656 22.597656 -0.703125 26.609375 -0.703125 C 28.929688 -0.703125 31.082031 -1.179688 33.0625 -2.140625 C 35.039062 -3.097656 36.625 -4.445312 37.8125 -6.1875 C 39.007812 -7.9375 39.609375 -9.972656 39.609375 -12.296875 C 39.609375 -14.503906 39.023438 -16.421875 37.859375 -18.046875 C 36.691406 -19.679688 35.175781 -21.109375 33.3125 -22.328125 C 31.457031 -23.546875 29.5 -24.609375 27.4375 -25.515625 C 25.375 -26.421875 23.410156 -27.25 21.546875 -28 C 18.117188 -29.394531 15.140625 -30.804688 12.609375 -32.234375 C 10.078125 -33.660156 8.125 -35.375 6.75 -37.375 C 5.382812 -39.382812 4.703125 -41.929688 4.703125 -45.015625 C 4.703125 -48.441406 5.585938 -51.390625 7.359375 -53.859375 C 9.140625 -56.335938 11.628906 -58.257812 14.828125 -59.625 C 18.023438 -60.988281 21.75 -61.671875 26 -61.671875 C 29.945312 -61.671875 33.347656 -61.234375 36.203125 -60.359375 C 39.054688 -59.492188 41.320312 -58.59375 43 -57.65625 L 43.359375 -47.546875 L 42.484375 -47.28125 C 40.859375 -51.0625 38.488281 -54.171875 35.375 -56.609375 C 32.257812 -59.054688 28.203125 -60.28125 23.203125 -60.28125 C 20.878906 -60.28125 18.710938 -59.828125 16.703125 -58.921875 C 14.703125 -58.023438 13.101562 -56.734375 11.90625 -55.046875 C 10.71875 -53.359375 10.125 -51.265625 10.125 -48.765625 C 10.125 -46.722656 10.613281 -44.945312 11.59375 -43.4375 C 12.582031 -41.925781 13.890625 -40.617188 15.515625 -39.515625 C 17.148438 -38.410156 18.925781 -37.4375 20.84375 -36.59375 C 22.769531 -35.75 24.660156 -34.953125 26.515625 -34.203125 C 29.773438 -32.921875 32.828125 -31.550781 35.671875 -30.09375 C 38.523438 -28.644531 40.835938 -26.875 42.609375 -24.78125 C 44.390625 -22.6875 45.28125 -19.976562 45.28125 -16.65625 C 45.28125 -13.050781 44.289062 -9.925781 42.3125 -7.28125 C 40.332031 -4.632812 37.785156 -2.613281 34.671875 -1.21875 C 31.566406 0.175781 28.296875 0.875 24.859375 0.875 Z M 24.859375 0.875 "/></g></g></g><g fill="#ff914d" fill-opacity="1"><g transform="translate(71.505915, 177.345889)"><g><path d="M 22.421875 0.953125 C 18.816406 0.898438 15.554688 -0.0664062 12.640625 -1.953125 C 9.734375 -3.847656 7.421875 -6.4375 5.703125 -9.71875 C 3.992188 -13.007812 3.140625 -16.691406 3.140625 -20.765625 C 3.140625 -24.835938 4.039062 -28.644531 5.84375 -32.1875 C 7.644531 -35.738281 10.273438 -38.617188 13.734375 -40.828125 C 17.203125 -43.035156 21.4375 -44.140625 26.4375 -44.140625 C 29.6875 -44.140625 32.578125 -43.554688 35.109375 -42.390625 C 37.640625 -41.234375 39.691406 -39.898438 41.265625 -38.390625 L 44.578125 -43.609375 L 45.1875 -43.609375 L 45.1875 12.46875 C 45.1875 16.019531 45.429688 18.460938 45.921875 19.796875 C 46.421875 21.140625 47.335938 22.015625 48.671875 22.421875 L 48.671875 23.546875 L 34.890625 23.546875 L 34.890625 22.421875 C 36.234375 22.015625 37.148438 21.140625 37.640625 19.796875 C 38.140625 18.460938 38.390625 16.019531 38.390625 12.46875 L 38.390625 -7.671875 C 36.234375 -5.410156 33.816406 -3.390625 31.140625 -1.609375 C 28.460938 0.160156 25.554688 1.015625 22.421875 0.953125 Z M 9.6875 -26 C 9.6875 -23.4375 10.003906 -20.832031 10.640625 -18.1875 C 11.285156 -15.539062 12.257812 -13.082031 13.5625 -10.8125 C 14.875 -8.550781 16.585938 -6.734375 18.703125 -5.359375 C 20.828125 -3.992188 23.375 -3.3125 26.34375 -3.3125 C 28.664062 -3.3125 30.832031 -3.847656 32.84375 -4.921875 C 34.851562 -6.003906 36.703125 -7.445312 38.390625 -9.25 L 38.390625 -29.3125 C 38.390625 -31.34375 37.703125 -33.363281 36.328125 -35.375 C 34.960938 -37.382812 33.160156 -39.070312 30.921875 -40.4375 C 28.679688 -41.800781 26.222656 -42.484375 23.546875 -42.484375 C 20.523438 -42.484375 17.984375 -41.753906 15.921875 -40.296875 C 13.859375 -38.847656 12.300781 -36.875 11.25 -34.375 C 10.207031 -31.875 9.6875 -29.082031 9.6875 -26 Z M 9.6875 -26 "/></g></g></g><g fill="#ff914d" fill-opacity="1"><g transform="translate(117.826316, 177.345889)"><g><path d="M 19.015625 0.875 C 14.421875 0.875 11.046875 -0.519531 8.890625 -3.3125 C 6.742188 -6.101562 5.671875 -10 5.671875 -15 L 5.671875 -31.140625 C 5.671875 -33.179688 5.539062 -34.707031 5.28125 -35.71875 C 5.019531 -36.738281 4.640625 -37.476562 4.140625 -37.9375 C 3.648438 -38.40625 3 -38.816406 2.1875 -39.171875 L 2.1875 -40.125 L 11.6875 -44.3125 L 12.46875 -43.703125 L 12.46875 -16.578125 C 12.46875 -11.628906 13.222656 -7.992188 14.734375 -5.671875 C 16.253906 -3.347656 18.757812 -2.1875 22.25 -2.1875 C 24.800781 -2.1875 27.238281 -2.894531 29.5625 -4.3125 C 31.894531 -5.738281 34.050781 -7.5 36.03125 -9.59375 L 36.03125 -31.140625 C 36.03125 -33.179688 35.898438 -34.707031 35.640625 -35.71875 C 35.378906 -36.738281 35 -37.476562 34.5 -37.9375 C 34.007812 -38.40625 33.351562 -38.816406 32.53125 -39.171875 L 32.53125 -40.125 L 42.046875 -44.3125 L 42.828125 -43.703125 L 42.828125 -11.078125 C 42.828125 -7.523438 43.070312 -5.082031 43.5625 -3.75 C 44.0625 -2.414062 44.984375 -1.546875 46.328125 -1.140625 L 46.328125 0 L 38.90625 0 C 37.976562 0 37.265625 -0.257812 36.765625 -0.78125 C 36.273438 -1.300781 36.03125 -2.203125 36.03125 -3.484375 L 36.03125 -7.9375 C 33.820312 -5.613281 31.25 -3.5625 28.3125 -1.78125 C 25.375 -0.0078125 22.273438 0.875 19.015625 0.875 Z M 19.015625 0.875 "/></g></g></g><g fill="#ff914d" fill-opacity="1"><g transform="translate(163.099932, 177.345889)"><g><path d="M 23.8125 0.875 C 21.425781 0.875 19.007812 0.4375 16.5625 -0.4375 C 14.125 -1.3125 11.882812 -2.632812 9.84375 -4.40625 C 7.8125 -6.175781 6.1875 -8.398438 4.96875 -11.078125 C 3.75 -13.753906 3.140625 -16.894531 3.140625 -20.5 C 3.140625 -25.269531 4.203125 -29.425781 6.328125 -32.96875 C 8.453125 -36.519531 11.257812 -39.285156 14.75 -41.265625 C 18.238281 -43.242188 22.015625 -44.234375 26.078125 -44.234375 C 29.742188 -44.234375 32.867188 -43.519531 35.453125 -42.09375 C 38.046875 -40.664062 40.050781 -38.785156 41.46875 -36.453125 C 42.894531 -34.128906 43.640625 -31.570312 43.703125 -28.78125 L 9.59375 -28.78125 C 9.414062 -27.507812 9.328125 -26.175781 9.328125 -24.78125 C 9.328125 -20.820312 10.097656 -17.316406 11.640625 -14.265625 C 13.179688 -11.210938 15.363281 -8.84375 18.1875 -7.15625 C 21.007812 -5.46875 24.3125 -4.625 28.09375 -4.625 C 31.46875 -4.625 34.40625 -5.320312 36.90625 -6.71875 C 39.40625 -8.113281 41.640625 -9.945312 43.609375 -12.21875 L 44.40625 -11.421875 C 42.945312 -9.390625 41.195312 -7.425781 39.15625 -5.53125 C 37.125 -3.644531 34.84375 -2.101562 32.3125 -0.90625 C 29.789062 0.28125 26.957031 0.875 23.8125 0.875 Z M 9.859375 -29.921875 L 36.71875 -29.921875 C 36.4375 -31.898438 35.726562 -33.863281 34.59375 -35.8125 C 33.457031 -37.757812 31.941406 -39.382812 30.046875 -40.6875 C 28.160156 -42 25.878906 -42.65625 23.203125 -42.65625 C 19.484375 -42.71875 16.503906 -41.523438 14.265625 -39.078125 C 12.023438 -36.640625 10.554688 -33.585938 9.859375 -29.921875 Z M 9.859375 -29.921875 "/></g></g></g><g fill="#ff914d" fill-opacity="1"><g transform="translate(205.8438, 177.345889)"><g><path d="M 23.8125 0.875 C 21.425781 0.875 19.007812 0.4375 16.5625 -0.4375 C 14.125 -1.3125 11.882812 -2.632812 9.84375 -4.40625 C 7.8125 -6.175781 6.1875 -8.398438 4.96875 -11.078125 C 3.75 -13.753906 3.140625 -16.894531 3.140625 -20.5 C 3.140625 -25.269531 4.203125 -29.425781 6.328125 -32.96875 C 8.453125 -36.519531 11.257812 -39.285156 14.75 -41.265625 C 18.238281 -43.242188 22.015625 -44.234375 26.078125 -44.234375 C 29.742188 -44.234375 32.867188 -43.519531 35.453125 -42.09375 C 38.046875 -40.664062 40.050781 -38.785156 41.46875 -36.453125 C 42.894531 -34.128906 43.640625 -31.570312 43.703125 -28.78125 L 9.59375 -28.78125 C 9.414062 -27.507812 9.328125 -26.175781 9.328125 -24.78125 C 9.328125 -20.820312 10.097656 -17.316406 11.640625 -14.265625 C 13.179688 -11.210938 15.363281 -8.84375 18.1875 -7.15625 C 21.007812 -5.46875 24.3125 -4.625 28.09375 -4.625 C 31.46875 -4.625 34.40625 -5.320312 36.90625 -6.71875 C 39.40625 -8.113281 41.640625 -9.945312 43.609375 -12.21875 L 44.40625 -11.421875 C 42.945312 -9.390625 41.195312 -7.425781 39.15625 -5.53125 C 37.125 -3.644531 34.84375 -2.101562 32.3125 -0.90625 C 29.789062 0.28125 26.957031 0.875 23.8125 0.875 Z M 9.859375 -29.921875 L 36.71875 -29.921875 C 36.4375 -31.898438 35.726562 -33.863281 34.59375 -35.8125 C 33.457031 -37.757812 31.941406 -39.382812 30.046875 -40.6875 C 28.160156 -42 25.878906 -42.65625 23.203125 -42.65625 C 19.484375 -42.71875 16.503906 -41.523438 14.265625 -39.078125 C 12.023438 -36.640625 10.554688 -33.585938 9.859375 -29.921875 Z M 9.859375 -29.921875 "/></g></g></g><g fill="#ff914d" fill-opacity="1"><g transform="translate(248.587667, 177.345889)"><g><path d="M 2.359375 0 L 2.359375 -0.953125 L 26.78125 -42.3125 L 15.359375 -42.3125 C 12.566406 -42.3125 10.328125 -41.613281 8.640625 -40.21875 C 6.953125 -38.820312 5.378906 -36.257812 3.921875 -32.53125 L 3.140625 -32.71875 L 4.703125 -43.609375 L 34.375 -43.609375 L 34.375 -42.65625 L 10.125 -1.3125 L 22.859375 -1.3125 C 25.816406 -1.3125 28.328125 -2.179688 30.390625 -3.921875 C 32.460938 -5.671875 33.789062 -8.664062 34.375 -12.90625 L 35.15625 -12.90625 L 34.890625 0 Z M 2.359375 0 "/></g></g></g><g fill="#ff914d" fill-opacity="1"><g transform="translate(282.259323, 177.345889)"><g><path d="M 23.8125 0.875 C 21.425781 0.875 19.007812 0.4375 16.5625 -0.4375 C 14.125 -1.3125 11.882812 -2.632812 9.84375 -4.40625 C 7.8125 -6.175781 6.1875 -8.398438 4.96875 -11.078125 C 3.75 -13.753906 3.140625 -16.894531 3.140625 -20.5 C 3.140625 -25.269531 4.203125 -29.425781 6.328125 -32.96875 C 8.453125 -36.519531 11.257812 -39.285156 14.75 -41.265625 C 18.238281 -43.242188 22.015625 -44.234375 26.078125 -44.234375 C 29.742188 -44.234375 32.867188 -43.519531 35.453125 -42.09375 C 38.046875 -40.664062 40.050781 -38.785156 41.46875 -36.453125 C 42.894531 -34.128906 43.640625 -31.570312 43.703125 -28.78125 L 9.59375 -28.78125 C 9.414062 -27.507812 9.328125 -26.175781 9.328125 -24.78125 C 9.328125 -20.820312 10.097656 -17.316406 11.640625 -14.265625 C 13.179688 -11.210938 15.363281 -8.84375 18.1875 -7.15625 C 21.007812 -5.46875 24.3125 -4.625 28.09375 -4.625 C 31.46875 -4.625 34.40625 -5.320312 36.90625 -6.71875 C 39.40625 -8.113281 41.640625 -9.945312 43.609375 -12.21875 L 44.40625 -11.421875 C 42.945312 -9.390625 41.195312 -7.425781 39.15625 -5.53125 C 37.125 -3.644531 34.84375 -2.101562 32.3125 -0.90625 C 29.789062 0.28125 26.957031 0.875 23.8125 0.875 Z M 9.859375 -29.921875 L 36.71875 -29.921875 C 36.4375 -31.898438 35.726562 -33.863281 34.59375 -35.8125 C 33.457031 -37.757812 31.941406 -39.382812 30.046875 -40.6875 C 28.160156 -42 25.878906 -42.65625 23.203125 -42.65625 C 19.484375 -42.71875 16.503906 -41.523438 14.265625 -39.078125 C 12.023438 -36.640625 10.554688 -33.585938 9.859375 -29.921875 Z M 9.859375 -29.921875 "/></g></g></g><g fill="#ff914d" fill-opacity="1"><g transform="translate(325.003191, 177.345889)"><g><path d="M 22.421875 0.953125 C 18.816406 0.898438 15.554688 -0.0664062 12.640625 -1.953125 C 9.734375 -3.847656 7.421875 -6.4375 5.703125 -9.71875 C 3.992188 -13.007812 3.140625 -16.691406 3.140625 -20.765625 C 3.140625 -24.835938 4.039062 -28.644531 5.84375 -32.1875 C 7.644531 -35.738281 10.273438 -38.617188 13.734375 -40.828125 C 17.203125 -43.035156 21.4375 -44.140625 26.4375 -44.140625 C 28.820312 -44.140625 31.015625 -43.816406 33.015625 -43.171875 C 35.023438 -42.535156 36.785156 -41.722656 38.296875 -40.734375 L 38.296875 -57.3125 C 38.296875 -59.34375 38.164062 -60.867188 37.90625 -61.890625 C 37.644531 -62.910156 37.265625 -63.648438 36.765625 -64.109375 C 36.273438 -64.578125 35.625 -64.988281 34.8125 -65.34375 L 34.8125 -66.296875 L 44.40625 -70.484375 L 45.09375 -69.875 L 45.09375 -11.078125 C 45.09375 -7.523438 45.335938 -5.082031 45.828125 -3.75 C 46.328125 -2.414062 47.25 -1.546875 48.59375 -1.140625 L 48.59375 0 L 40.90625 0 C 39.164062 0 38.296875 -0.867188 38.296875 -2.609375 L 38.296875 -7.59375 C 36.140625 -5.382812 33.722656 -3.390625 31.046875 -1.609375 C 28.378906 0.160156 25.503906 1.015625 22.421875 0.953125 Z M 9.6875 -26 C 9.6875 -23.4375 10.003906 -20.832031 10.640625 -18.1875 C 11.285156 -15.539062 12.257812 -13.082031 13.5625 -10.8125 C 14.875 -8.550781 16.585938 -6.734375 18.703125 -5.359375 C 20.828125 -3.992188 23.375 -3.3125 26.34375 -3.3125 C 28.613281 -3.3125 30.75 -3.847656 32.75 -4.921875 C 34.757812 -6.003906 36.609375 -7.414062 38.296875 -9.15625 L 38.296875 -30.53125 C 38.066406 -32.445312 37.253906 -34.320312 35.859375 -36.15625 C 34.460938 -37.988281 32.703125 -39.5 30.578125 -40.6875 C 28.453125 -41.882812 26.171875 -42.484375 23.734375 -42.484375 C 20.648438 -42.484375 18.0625 -41.753906 15.96875 -40.296875 C 13.875 -38.847656 12.300781 -36.875 11.25 -34.375 C 10.207031 -31.875 9.6875 -29.082031 9.6875 -26 Z M 9.6875 -26 "/></g></g></g></svg>